<svg width="350" height="350" viewBox="0 0 350 350" fill="none" xmlns="http://www.w3.org/2000/svg">
<rect width="350" height="350" fill="#141414"/>
<path d="M23 101.2H47.8L94.6 203.6L141.4 101.2H166.2V241H142.2V150.2L100.6 241H88.6L47 150.2V241H23V101.2Z" fill="white"/>
<path d="M231.4 243C215.8 243 202.133 240.133 190.4 234.4C178.8 228.667 169.8 220.467 163.4 209.8C157.133 199.133 154 186.733 154 172.6C154 158.333 157.2 145.733 163.6 134.8C170.133 123.733 179 115.2 190.2 109.2C201.533 103.2 214.2 100.2 228.2 100.2C242.067 100.2 254.6 103.2 265.8 109.2C277.133 115.2 286 123.733 292.4 134.8C298.933 145.733 302.2 158.333 302.2 172.6C302.2 182.2 300.067 191.4 295.8 200.2C291.533 208.867 286 215.733 279.2 220.8H304.8V243H231.4ZM228.2 220C243 220 254.733 215.867 263.4 207.6C272.2 199.333 276.6 187.667 276.6 172.6C276.6 162.733 274.467 154.067 270.2 146.6C265.933 139.133 260.133 133.4 252.8 129.4C245.467 125.4 237.267 123.4 228.2 123.4C219.133 123.4 210.867 125.4 203.4 129.4C196.067 133.4 190.267 139.133 186 146.6C181.733 154.067 179.6 162.733 179.6 172.6C179.6 187.8 183.933 199.533 192.6 207.8C201.4 215.933 213.267 220 228.2 220Z" fill="white"/>
<circle cx="327.5" cy="231.5" r="11.5" fill="#FE4338"/>
</svg>
