<svg width="505" height="92" viewBox="0 0 505 92" fill="none" xmlns="http://www.w3.org/2000/svg">
<path d="M505 60C505 63.3137 502.314 66 499 66C495.686 66 493 63.3137 493 60C493 56.6863 495.686 54 499 54C502.314 54 505 56.6863 505 60Z" fill="#0001FF"/>
<path d="M3.6 24.06H11.04L25.08 54.78L39.12 24.06H46.56V66H39.36V38.76L26.88 66H23.28L10.8 38.76V66H3.6V24.06ZM61.3163 66.9C57.8763 66.9 55.0563 66 52.8563 64.2C50.6563 62.36 49.5563 59.9 49.5563 56.82C49.5563 53.62 50.5963 51.12 52.6763 49.32C54.7563 47.52 57.6763 46.62 61.4363 46.62C65.0763 46.62 68.2163 47.36 70.8563 48.84V48.06C70.8563 46.02 70.2163 44.54 68.9363 43.62C67.6963 42.7 65.6763 42.24 62.8763 42.24C61.1163 42.24 59.3763 42.42 57.6563 42.78C55.9363 43.1 54.4163 43.56 53.0963 44.16V38.22C54.2963 37.66 55.8963 37.2 57.8963 36.84C59.9363 36.48 61.8963 36.3 63.7763 36.3C68.7763 36.3 72.4763 37.38 74.8763 39.54C77.2763 41.66 78.4763 44.62 78.4763 48.42V66H71.3363V63.18C70.0963 64.38 68.6763 65.3 67.0763 65.94C65.5163 66.58 63.5963 66.9 61.3163 66.9ZM63.1763 61.38C64.8563 61.38 66.3763 61.06 67.7363 60.42C69.0963 59.74 70.1363 58.82 70.8563 57.66V54.48C68.6563 52.92 66.1363 52.14 63.2963 52.14C59.2563 52.14 57.2363 53.7 57.2363 56.82C57.2363 58.34 57.7363 59.48 58.7363 60.24C59.7763 61 61.2563 61.38 63.1763 61.38ZM92.4417 66.9C89.2817 66.9 86.8817 66.02 85.2417 64.26C83.6017 62.5 82.7817 60.02 82.7817 56.82V42.96H78.4617V37.2H82.7817V28.56H90.3417V37.2H97.2417V42.96H90.3417V55.86C90.3417 57.7 90.6817 59.02 91.3617 59.82C92.0417 60.58 93.2817 60.96 95.0817 60.96C96.3217 60.96 97.5417 60.68 98.7417 60.12V65.88C97.0217 66.56 94.9217 66.9 92.4417 66.9ZM101.123 21.66H108.683V40.86C111.403 37.82 114.923 36.3 119.243 36.3C123.123 36.3 126.023 37.36 127.943 39.48C129.863 41.56 130.823 44.34 130.823 47.82V66H123.263V48.54C123.263 44.34 121.303 42.24 117.383 42.24C115.663 42.24 114.043 42.66 112.523 43.5C111.003 44.3 109.723 45.52 108.683 47.16V66H101.123V21.66ZM150.945 66.9C145.585 66.9 141.345 65.56 138.225 62.88C135.105 60.2 133.545 56.46 133.545 51.66C133.545 46.94 134.925 43.2 137.685 40.44C140.445 37.68 144.385 36.3 149.505 36.3C152.865 36.3 155.725 36.94 158.085 38.22C160.485 39.5 162.285 41.26 163.485 43.5C164.685 45.7 165.285 48.22 165.285 51.06V54.54H140.745C141.265 58.82 144.985 60.96 151.905 60.96C153.745 60.96 155.625 60.8 157.545 60.48C159.465 60.16 161.145 59.72 162.585 59.16V64.98C161.225 65.54 159.465 66 157.305 66.36C155.185 66.72 153.065 66.9 150.945 66.9ZM158.145 49.38C158.065 47.1 157.245 45.34 155.685 44.1C154.165 42.86 152.065 42.24 149.385 42.24C146.745 42.24 144.665 42.88 143.145 44.16C141.625 45.44 140.825 47.18 140.745 49.38H158.145ZM179.587 66.9C175.707 66.9 172.807 65.86 170.887 63.78C168.967 61.66 168.007 58.86 168.007 55.38V37.2H175.567V54.66C175.567 58.86 177.527 60.96 181.447 60.96C183.167 60.96 184.787 60.56 186.307 59.76C187.827 58.92 189.107 57.68 190.147 56.04V37.2H197.707V66H190.387V62.1C189.027 63.74 187.407 64.96 185.527 65.76C183.647 66.52 181.667 66.9 179.587 66.9ZM213.148 66.9C211.068 66.9 208.848 66.66 206.488 66.18C204.128 65.7 202.288 65.04 200.968 64.2V57.78C202.528 58.74 204.388 59.52 206.548 60.12C208.708 60.68 210.748 60.96 212.668 60.96C214.588 60.96 215.988 60.8 216.868 60.48C217.748 60.12 218.188 59.48 218.188 58.56C218.188 57.84 217.948 57.26 217.468 56.82C217.028 56.34 216.288 55.92 215.248 55.56C214.248 55.16 212.688 54.68 210.568 54.12C208.168 53.44 206.268 52.74 204.868 52.02C203.508 51.3 202.468 50.4 201.748 49.32C201.068 48.2 200.728 46.76 200.728 45C200.728 42.12 201.868 39.96 204.148 38.52C206.428 37.04 209.508 36.3 213.388 36.3C215.388 36.3 217.368 36.5 219.328 36.9C221.328 37.26 222.888 37.78 224.008 38.46V44.64C222.808 43.92 221.348 43.34 219.628 42.9C217.908 42.46 216.148 42.24 214.348 42.24C212.388 42.24 210.908 42.44 209.908 42.84C208.908 43.2 208.408 43.92 208.408 45C208.408 45.72 208.668 46.3 209.188 46.74C209.748 47.14 210.468 47.5 211.348 47.82C212.228 48.1 213.828 48.54 216.148 49.14C218.628 49.82 220.568 50.56 221.968 51.36C223.368 52.16 224.368 53.12 224.968 54.24C225.568 55.36 225.868 56.76 225.868 58.44C225.868 61 224.768 63.06 222.568 64.62C220.408 66.14 217.268 66.9 213.148 66.9ZM269.511 66C264.831 66 260.731 65.14 257.211 63.42C253.731 61.7 251.031 59.24 249.111 56.04C247.231 52.84 246.291 49.12 246.291 44.88C246.291 40.6 247.251 36.82 249.171 33.54C251.131 30.22 253.791 27.66 257.151 25.86C260.551 24.06 264.351 23.16 268.551 23.16C272.711 23.16 276.471 24.06 279.831 25.86C283.231 27.66 285.891 30.22 287.811 33.54C289.771 36.82 290.751 40.6 290.751 44.88C290.751 47.76 290.111 50.52 288.831 53.16C287.551 55.76 285.891 57.82 283.851 59.34H291.531V66H269.511ZM268.551 59.1C272.991 59.1 276.511 57.86 279.111 55.38C281.751 52.9 283.071 49.4 283.071 44.88C283.071 41.92 282.431 39.32 281.151 37.08C279.871 34.84 278.131 33.12 275.931 31.92C273.731 30.72 271.271 30.12 268.551 30.12C265.831 30.12 263.351 30.72 261.111 31.92C258.911 33.12 257.171 34.84 255.891 37.08C254.611 39.32 253.971 41.92 253.971 44.88C253.971 49.44 255.271 52.96 257.871 55.44C260.511 57.88 264.071 59.1 268.551 59.1ZM304.638 66.9C300.758 66.9 297.858 65.86 295.938 63.78C294.018 61.66 293.058 58.86 293.058 55.38V37.2H300.618V54.66C300.618 58.86 302.578 60.96 306.498 60.96C308.218 60.96 309.838 60.56 311.358 59.76C312.878 58.92 314.158 57.68 315.198 56.04V37.2H322.758V66H315.438V62.1C314.078 63.74 312.458 64.96 310.578 65.76C308.698 66.52 306.718 66.9 304.638 66.9ZM331.239 32.16C330.039 32.16 329.019 31.76 328.179 30.96C327.379 30.16 326.979 29.16 326.979 27.96C326.979 26.76 327.379 25.76 328.179 24.96C329.019 24.12 330.039 23.7 331.239 23.7C332.439 23.7 333.459 24.12 334.299 24.96C335.139 25.76 335.559 26.76 335.559 27.96C335.559 29.16 335.139 30.16 334.299 30.96C333.459 31.76 332.439 32.16 331.239 32.16ZM327.399 37.2H335.079V66H327.399V37.2ZM339.741 37.2H347.061V41.1C348.421 39.46 350.041 38.26 351.921 37.5C353.801 36.7 355.781 36.3 357.861 36.3C361.741 36.3 364.641 37.36 366.561 39.48C368.481 41.56 369.441 44.34 369.441 47.82V66H361.881V48.54C361.881 44.34 359.921 42.24 356.001 42.24C354.281 42.24 352.661 42.66 351.141 43.5C349.621 44.3 348.341 45.52 347.301 47.16V66H339.741V37.2ZM384.942 66.9C381.782 66.9 379.382 66.02 377.742 64.26C376.102 62.5 375.282 60.02 375.282 56.82V42.96H370.962V37.2H375.282V28.56H382.842V37.2H389.742V42.96H382.842V55.86C382.842 57.7 383.182 59.02 383.862 59.82C384.542 60.58 385.782 60.96 387.582 60.96C388.822 60.96 390.042 60.68 391.242 60.12V65.88C389.522 66.56 387.422 66.9 384.942 66.9ZM403.305 66.9C399.865 66.9 397.045 66 394.845 64.2C392.645 62.36 391.545 59.9 391.545 56.82C391.545 53.62 392.585 51.12 394.665 49.32C396.745 47.52 399.665 46.62 403.425 46.62C407.065 46.62 410.205 47.36 412.845 48.84V48.06C412.845 46.02 412.205 44.54 410.925 43.62C409.685 42.7 407.665 42.24 404.865 42.24C403.105 42.24 401.365 42.42 399.645 42.78C397.925 43.1 396.405 43.56 395.085 44.16V38.22C396.285 37.66 397.885 37.2 399.885 36.84C401.925 36.48 403.885 36.3 405.765 36.3C410.765 36.3 414.465 37.38 416.865 39.54C419.265 41.66 420.465 44.62 420.465 48.42V66H413.325V63.18C412.085 64.38 410.665 65.3 409.065 65.94C407.505 66.58 405.585 66.9 403.305 66.9ZM405.165 61.38C406.845 61.38 408.365 61.06 409.725 60.42C411.085 59.74 412.125 58.82 412.845 57.66V54.48C410.645 52.92 408.125 52.14 405.285 52.14C401.245 52.14 399.225 53.7 399.225 56.82C399.225 58.34 399.725 59.48 400.725 60.24C401.765 61 403.245 61.38 405.165 61.38ZM440.573 66.9C435.213 66.9 430.973 65.56 427.853 62.88C424.733 60.2 423.173 56.46 423.173 51.66C423.173 46.94 424.553 43.2 427.313 40.44C430.073 37.68 434.013 36.3 439.133 36.3C442.493 36.3 445.353 36.94 447.713 38.22C450.113 39.5 451.913 41.26 453.113 43.5C454.313 45.7 454.913 48.22 454.913 51.06V54.54H430.373C430.893 58.82 434.613 60.96 441.533 60.96C443.373 60.96 445.253 60.8 447.173 60.48C449.093 60.16 450.773 59.72 452.213 59.16V64.98C450.853 65.54 449.093 66 446.933 66.36C444.813 66.72 442.693 66.9 440.573 66.9ZM447.773 49.38C447.693 47.1 446.873 45.34 445.313 44.1C443.793 42.86 441.693 42.24 439.013 42.24C436.373 42.24 434.293 42.88 432.773 44.16C431.253 45.44 430.453 47.18 430.373 49.38H447.773ZM469.156 66.9C467.076 66.9 464.856 66.66 462.496 66.18C460.136 65.7 458.296 65.04 456.976 64.2V57.78C458.536 58.74 460.396 59.52 462.556 60.12C464.716 60.68 466.756 60.96 468.676 60.96C470.596 60.96 471.996 60.8 472.876 60.48C473.756 60.12 474.196 59.48 474.196 58.56C474.196 57.84 473.956 57.26 473.476 56.82C473.036 56.34 472.296 55.92 471.256 55.56C470.256 55.16 468.696 54.68 466.576 54.12C464.176 53.44 462.276 52.74 460.876 52.02C459.516 51.3 458.476 50.4 457.756 49.32C457.076 48.2 456.736 46.76 456.736 45C456.736 42.12 457.876 39.96 460.156 38.52C462.436 37.04 465.516 36.3 469.396 36.3C471.396 36.3 473.376 36.5 475.336 36.9C477.336 37.26 478.896 37.78 480.016 38.46V44.64C478.816 43.92 477.356 43.34 475.636 42.9C473.916 42.46 472.156 42.24 470.356 42.24C468.396 42.24 466.916 42.44 465.916 42.84C464.916 43.2 464.416 43.92 464.416 45C464.416 45.72 464.676 46.3 465.196 46.74C465.756 47.14 466.476 47.5 467.356 47.82C468.236 48.1 469.836 48.54 472.156 49.14C474.636 49.82 476.576 50.56 477.976 51.36C479.376 52.16 480.376 53.12 480.976 54.24C481.576 55.36 481.876 56.76 481.876 58.44C481.876 61 480.776 63.06 478.576 64.62C476.416 66.14 473.276 66.9 469.156 66.9Z" fill="#141414"/>
</svg>
