<svg width="328" height="304" viewBox="0 0 328 304" fill="none" xmlns="http://www.w3.org/2000/svg">
<path d="M12 78.2H36.8L83.6 180.6L130.4 78.2H155.2V218H131.2V127.2L89.6 218H77.6L36 127.2V218H12V78.2Z" fill="black"/>
<path d="M220.4 220C204.8 220 191.133 217.133 179.4 211.4C167.8 205.667 158.8 197.467 152.4 186.8C146.133 176.133 143 163.733 143 149.6C143 135.333 146.2 122.733 152.6 111.8C159.133 100.733 168 92.2 179.2 86.2C190.533 80.2 203.2 77.2 217.2 77.2C231.067 77.2 243.6 80.2 254.8 86.2C266.133 92.2 275 100.733 281.4 111.8C287.933 122.733 291.2 135.333 291.2 149.6C291.2 159.2 289.067 168.4 284.8 177.2C280.533 185.867 275 192.733 268.2 197.8H293.8V220H220.4ZM217.2 197C232 197 243.733 192.867 252.4 184.6C261.2 176.333 265.6 164.667 265.6 149.6C265.6 139.733 263.467 131.067 259.2 123.6C254.933 116.133 249.133 110.4 241.8 106.4C234.467 102.4 226.267 100.4 217.2 100.4C208.133 100.4 199.867 102.4 192.4 106.4C185.067 110.4 179.267 116.133 175 123.6C170.733 131.067 168.6 139.733 168.6 149.6C168.6 164.8 172.933 176.533 181.6 184.8C190.4 192.933 202.267 197 217.2 197Z" fill="black"/>
<circle cx="316.5" cy="208.5" r="11.5" fill="#0001FF"/>
</svg>
